<svg xmlns="http://www.w3.org/2000/svg" viewBox="0 0 472.2 90.4"><linearGradient id="a" gradientUnits="userSpaceOnUse" x1="224.927" y1="107.922" x2="247.34" y2="-33.585" gradientTransform="matrix(1 0 0 -1 0 72.871)"><stop offset="0" stop-color="#005ea8"/><stop offset=".216" stop-color="#0062ac"/><stop offset=".439" stop-color="#006fb7"/><stop offset=".666" stop-color="#0083c9"/><stop offset=".894" stop-color="#00a0e3"/><stop offset=".9" stop-color="#00a1e4"/></linearGradient><path d="M54.2 46.2c0 17.6 8.2 26.9 23.6 26.9 6.9 0 10-3.1 12.2-5.4l1.3-1.3.4 5.2H102V26.1c-1.5-1.2-9.6-6.9-23.6-6.9-15.4.1-24.2 9.9-24.2 27zm37.3-14.1v25.4l-.2.3c-4 4.1-8.1 6-12.9 6-8.7 0-12.8-5.6-12.8-17.5 0-12.5 3.7-17.5 12.8-17.5 5.8 0 9.6 1.8 12.6 3.2l.5.1zm105.7 14.1c0 17.6 8.2 26.9 23.6 26.9 6.9 0 10-3.1 12.2-5.4l1.3-1.3.4 5.2H245V26.1c-1.5-1.2-9.6-6.9-23.6-6.9-15.3.1-24.2 9.9-24.2 27zm37.4-14.1v25.4l-.2.3c-4 4.1-8.1 6-12.9 6-8.7 0-12.8-5.6-12.8-17.5 0-12.5 3.7-17.5 12.8-17.5 5.8 0 9.6 1.8 12.6 3.2l.5.1zM345 46.2c0 17.6 8.2 26.9 23.7 26.9 6.9 0 10-3.1 12.2-5.4l1.3-1.3.4 5.2h10.2V26.1c-1.5-1.2-9.6-6.9-23.6-6.9-15.4.1-24.2 9.9-24.2 27zm37.3-14.1v25.4l-.2.3c-4 4.1-8 6-12.9 6-8.7 0-12.8-5.6-12.8-17.5 0-12.5 3.7-17.5 12.8-17.5 5.8 0 9.6 1.8 12.6 3.2l.5.1zM181.1 1.9c-.8.8-1 2.7-1 4.4v65.4h11.4V1.1c-.8-.3-2.8-1-5.4-1-2.5-.1-4.3 1.1-5 1.8zM467.5 0c-2.4 0-4.3 1.2-4.9 1.9-.8.8-1.1 2.9-1.1 4.7v16.7l-1.4-.9c-.1 0-4.7-3.2-13.1-3.2-15.4 0-24.2 9.8-24.2 26.9 0 18.1 8.6 26.9 26.2 26.9 14 0 21.2-2.1 23.1-2.7V.8c-.6-.3-2.4-.8-4.6-.8zm-6.2 63.3l-.7.1c-.1 0-5.7.6-11.4.6-10.5 0-15.8-5.8-15.8-17.3 0-12.3 4.5-18.3 13.7-18.3 10.5 0 14.3 4.6 14.3 8.9l-.1 26zm-436.1-44c-8.3 0-13 3.1-13.1 3.2l-1.4.9V6.6c0-1.8-.3-3.8-1.1-4.7C9 1.2 7.1 0 4.7 0 2.5 0 .8.5 0 .8v69.5C1.9 71 9.1 73 23.1 73c17.7 0 26.2-8.8 26.2-26.9 0-17-8.8-26.8-24.1-26.8zM23.1 64c-5.7 0-10.8-.5-11.5-.6l-.7-.1v-26c0-4.3 3.8-8.9 14.2-8.9 9.2 0 13.7 6 13.7 18.3.1 11.4-5.2 17.3-15.7 17.3zm302.5-.3c-8.8 0-12.9-5.6-12.9-17.6 0-12.4 3.7-17.5 12.9-17.5 5.5 0 9.4 1.5 12.6 4.8.4-.2 1-.5 1.5-.9s2.2-1.8 2.8-3.5c.2-.5.2-1 .2-1.4 0-2.5-2.4-4.2-4.4-5.4-3.4-1.9-7.8-2.9-12.8-2.9-15.4 0-24.2 9.8-24.2 26.9 0 17.6 8.4 26.9 24.2 26.9 8.5 0 14.8-2.4 18.9-7.2-.9-.9-5.4-5.9-6.4-6.9-3.3 3.3-6.9 4.7-12.4 4.7zm-169.3 0c-8.7 0-12.8-5.6-12.8-17.6 0-12.4 3.7-17.5 12.8-17.5 5.5 0 9.4 1.5 12.6 4.8.4-.2 1-.5 1.6-.9.5-.4 2.2-1.8 2.8-3.5.2-.5.3-1 .3-1.4 0-2.5-2.4-4.2-4.4-5.4-3.4-1.9-7.8-2.9-12.8-2.9-15.4 0-24.2 9.8-24.2 26.9 0 17.6 8.4 26.9 24.2 26.9 8.5 0 14.8-2.4 18.9-7.2-.8-.9-5.4-5.9-6.4-6.9-3.5 3.3-7.1 4.7-12.6 4.7zm-28.6-44.4c-12.5 0-19.7 6.8-19.7 18.7v33.7h11.6V36.4c.4-5.1 1.9-8 8.1-8.3 1.3-.1 2.6-.1 3.8-.1.4-.7 3.6-6.2 4.4-7.6-2.4-.7-5.2-1.1-8.2-1.1zm290.8 0c-12.5 0-19.7 6.8-19.7 18.7v33.7h11.6V36.4c.5-5.1 1.9-8 8-8.3 1.3-.1 2.5-.1 3.7-.1.4-.7 3.6-6.2 4.5-7.6-2.3-.7-5.1-1.1-8.1-1.1zM285.8 22c-.7.7-1 2.4-1 4.6V45c0 8.1-.8 14.2-11.2 14.2-8.4 0-11.6-4-11.6-14.2V20.9c-.5-.3-2.1-.9-4.9-.9-2.4 0-4.2 1.2-4.9 1.9-.8.8-1 3-1 4.7v22.8c0 17.2 10.9 19.4 20.5 19.4 7.5 0 9.9-2 10.4-2.4 1.5-1 2.6-2.6 2.6-2.6v3.4c0 8.6-1.9 13.9-11.4 13.9-8.5 0-15.7-2.1-18.1-2.8-.4 1.3-2.3 7.1-2.7 8.3 2.5.9 11.3 3.7 20.8 3.7 14.4 0 22.3-7.7 22.3-21.8V20.7c-.4-.2-1.9-.7-5-.7-2.3.2-4.1 1.4-4.8 2z" fill="url(#a)"/></svg>